<?xml version="1.0" encoding="UTF-8"?>
<svg width="40px" height="35px" viewBox="0 0 40 35" version="1.1" xmlns="http://www.w3.org/2000/svg" xmlns:xlink="http://www.w3.org/1999/xlink">
    <title>Icon/Progress</title>
    <defs>
        <path d="M24,4 C35.045695,4 44,12.954305 44,24 C44,26.6118087 43.4993566,29.1066858 42.5888003,31.3939008 L38.1751722,29.1560679 C38.7604424,27.5474104 39.07968,25.8109862 39.07968,24 C39.07968,15.6717227 32.3282773,8.92032004 24,8.92032004 C15.6717227,8.92032004 8.92032004,15.6717227 8.92032004,24 C8.92032004,28.286797 10.7090694,32.1558092 13.5808944,34.9013628 L10.4860874,38.7437736 C6.499386,35.087659 4,29.8357109 4,24 C4,12.954305 12.954305,4 24,4 Z" id="path-1"></path>
    </defs>
    <g id="Style-Guide" stroke="none" stroke-width="1" fill="none" fill-rule="evenodd">
        <g id="05---Highlights" transform="translate(-657.000000, -1812.000000)">
            <g id="Group" transform="translate(151.000000, 279.000000)">
                <g id="Aggregated-Usage-Data" transform="translate(0.000000, 306.000000)">
                    <g id="Group-3-Copy" transform="translate(0.000000, 1000.000000)">
                        <g id="Loading" transform="translate(299.000000, 223.000000)">
                            <g id="Icon/Progress" transform="translate(203.000000, 0.000000)">
                                <mask id="mask-2" fill="white">
                                    <use xlink:href="#path-1"></use>
                                </mask>
                                <use id="Combined-Shape" fill="#3B9DD7" xlink:href="#path-1"></use>
                            </g>
                        </g>
                    </g>
                </g>
            </g>
        </g>
    </g>
</svg>